PathFileType	4	(X/Y/Z)	65_1_8_p0_0-262.trc
DataRate	CameraRate	NumFrames	NumMarkers	Units	OrigDataRate	OrigDataStartFrame	OrigNumFrames
59.0	59.0	7	27	m	59.0	230	263
Frame#	Time	RHip			RKnee			RAnkle			RBigToe			RSmallToe			RHeel			LHip			LKnee			LAnkle			LBigToe			LSmallToe			LHeel			Neck			Head			Nose			RShoulder			RElbow			RWrist			RThumb			RIndex			RPinky			LShoulder			LElbow			LWrist			LThumb			LIndex			LPinky			
		X1	Y1	Z1	X2	Y2	Z2	X3	Y3	Z3	X4	Y4	Z4	X5	Y5	Z5	X6	Y6	Z6	X7	Y7	Z7	X8	Y8	Z8	X9	Y9	Z9	X10	Y10	Z10	X11	Y11	Z11	X12	Y12	Z12	X13	Y13	Z13	X14	Y14	Z14	X15	Y15	Z15	X16	Y16	Z16	X17	Y17	Z17	X18	Y18	Z18	X19	Y19	Z19	X20	Y20	Z20	X21	Y21	Z21	X22	Y22	Z22	X23	Y23	Z23	X24	Y24	Z24	X25	Y25	Z25	X26	Y26	Z26	X27	Y27	Z27	
230	3.8983050847457625	0.4017586400532692	0.7342311473771859	0.34438160784330973	0.34821883818103705	0.8327531872831252	0.7366522515028461	0.29345842123091426	1.026871481420249	1.1536361305392206	0.2912173266218183	0.8951700203572172	1.218842077847372	0.347731475095389	0.9186357893626934	1.2097488275595567	0.2746088725656491	1.1188734615701836	1.202824181599851	0.17358251063912467	0.741521555078555	0.2986707557033279	0.1450576926741288	0.8696645230771008	0.723327122103746	0.11557834148759337	1.0576975167685956	1.147773482147993	0.1306430105578013	0.845370077578627	1.1802107431662392	0.07665375508303553	0.9308877670494916	1.1795591496271691	0.13010844828520857	1.0785115705149477	1.1771062047379994	0.3695836672561164	0.4895350923304663	-0.19844190833036288	0.40256406172963327	0.2863088046032246	-0.4068424151414824	0.3841658428345662	0.29075221755593966	-0.2603533486633335	0.514905274781385	0.4984320815171316	-0.09580256840270411	0.5073866263442703	0.5710716743367723	0.16530281908979133	0.391433611855974	0.5682235526356635	0.37834628886547333	0.2739293036965358	0.5898560532727424	0.4663250842477739	0.27317670941610844	0.5915901563025455	0.4809370578726724	0.3159992540577149	0.6697611196965186	0.48510766776685776	0.19547725340707767	0.5210109916344176	-0.16255209225911013	0.1229217415588562	0.5831650012153663	0.09179999225136813	0.15905048967029795	0.5363365458225271	0.3481276983209933	0.21215191131628552	0.5063173965431944	0.4278127316124469	0.2034341608055864	0.5018522507961153	0.4592463427996132	0.16939807677902405	0.5561846802973139	0.47439069029576386
231	3.9152542372881354	0.40163689017743054	0.7313406596176035	0.33998003554881995	0.36093215903855846	0.8612152559198328	0.7285688672893528	0.29347039174343376	1.027953535623305	1.1493402350833652	0.2933957387754988	0.9068773795117131	1.223544151446125	0.35094234512893985	0.9319374742504836	1.2143950351361805	0.26663715065492344	1.100175551228518	1.1975372377300684	0.17483431799708204	0.7398381918299866	0.29063515075710056	0.14729576626005428	0.864472957612414	0.7090265560348435	0.11542898886354805	1.057848333756345	1.1477518013089518	0.13069243073553027	0.8455596637211041	1.180403891281504	0.07717955052849707	0.9315205964452005	1.1798420482911833	0.13014350916359538	1.0779870384582606	1.1816471934439434	0.36964947795264314	0.48956879232721456	-0.19863642281394156	0.40274572875780984	0.30816851313022686	-0.41226992894372894	0.384481247824303	0.28906190654380187	-0.2666691916881973	0.5157007010271378	0.49722517461398646	-0.1023798664941956	0.5104988596497487	0.5571482702859014	0.16570545499304068	0.3913054103926303	0.5657771442536473	0.3741142850631685	0.27377507526405553	0.5874620201736048	0.4581048360025424	0.27336151873877257	0.5916454473965768	0.47350665180682006	0.32038893983701955	0.6547237765380725	0.4805566266454211	0.19579276995986825	0.519538625299659	-0.16616108386882186	0.12292590601041865	0.5828723320922654	0.09164510020231625	0.16018052791963672	0.535006897840523	0.34425346659987865	0.21621495553809134	0.5073939003882085	0.4280328463210501	0.20795779736976855	0.5007360481912011	0.45293234905171187	0.1705477185714902	0.5558634807293775	0.47028141254565825
232	3.9322033898305087	0.39619338003165766	0.7322993119680802	0.3399576808461369	0.3638005618574593	0.8742853135604888	0.7255984496885406	0.2971787828806268	1.0446806472132122	1.1538623799837464	0.29163873678758545	0.8974308645489556	1.2133070934313528	0.351350136277401	0.9353255787724543	1.2151778677036977	0.2665368053704498	1.0993403034684	1.1971890447650542	0.1738763243237467	0.7410210687020359	0.29461324520499105	0.14719380414840683	0.8646233194763331	0.7038149240825453	0.11223591325427826	1.0414263940299449	1.1430015410042411	0.13064083285559558	0.845099494223548	1.1803772422312357	0.0767038124247244	0.9293026635454353	1.1793361567404053	0.1296008916185362	1.0763095956161013	1.1773653362005574	0.37381856347217185	0.5004893017442087	-0.20384130538330453	0.40270163709891754	0.30830298968652614	-0.4126318372563171	0.38792317286429456	0.2996825017091021	-0.26865804978151314	0.5157996449707828	0.4975240489620367	-0.10243179954733037	0.5105426869060593	0.5569544200152522	0.16577144948244085	0.3914073495221631	0.5657115802937039	0.37075041274684495	0.26909396749927544	0.587108652164897	0.457630752144762	0.2683524708307554	0.6053268255689366	0.4747942100400823	0.30527004776224054	0.6391303195108181	0.4711221097196264	0.1969061046298365	0.5165518869369703	-0.17640602519752227	0.12379015745914766	0.5812784888517044	0.08833982471961221	0.16432732954887513	0.5358189804280178	0.3374477213041462	0.2172375597326366	0.5044359494367907	0.42034482258700356	0.20819280084599945	0.5013238305718989	0.4528492857070973	0.1755007453127588	0.5543377493174011	0.4673149837950944
233	3.9491525423728815	0.3961585508086182	0.7324054704071251	0.3400172783821394	0.36368536551863995	0.8744416510065061	0.7254570927823104	0.2967821691093879	1.041783626635217	1.148917018737976	0.2912640594237744	0.8964512073400941	1.2129346834173171	0.34990352899638505	0.9319703139192447	1.2139885054383626	0.26903736045939536	1.114500647524637	1.2010777534556882	0.17297522863862255	0.7429618450380168	0.29491311182152125	0.13922507993274089	0.8828822364621997	0.715261421783591	0.11233276611888293	1.0426003963199755	1.1391210375822154	0.13522369211223972	0.8492685551707952	1.1820151436235307	0.07393769810353493	0.9132768877571817	1.1746076458381576	0.1292166875324908	1.075055438520978	1.1771685571308166	0.37388584100098177	0.49887886274469795	-0.2070351190737811	0.40601929300675244	0.3194675100191585	-0.41506147595369225	0.38805158354411207	0.30003918583467143	-0.268829321096614	0.5157917027328062	0.497608731727689	-0.10250611045785331	0.5106127797114964	0.5569732681131518	0.16577737991374744	0.39131893687567515	0.5656263586441768	0.37046258420503153	0.2618805113123518	0.5879771073773085	0.45299147537678597	0.26331167768865765	0.6189382630793452	0.4755401935693321	0.29279403842651974	0.6369847048904754	0.46720756116568074	0.19664778683671652	0.5190363638686014	-0.16945434802954285	0.12377991608434821	0.581384047164772	0.08819266845744402	0.16733489272516391	0.5479928390130773	0.3380453319968988	0.22579738534929625	0.5060493893514192	0.4207397978501784	0.21195529552131734	0.5020701793605205	0.45265344934871016	0.1786956147181747	0.5673913702346115	0.4686007522710499
234	3.9661016949152543	0.39695098915882304	0.7304909388929061	0.33572016904611174	0.3635520100683628	0.8751447840279063	0.7211762218786179	0.2967863648298359	1.0420360046230706	1.1490558985225392	0.29316481998732685	0.9060962475756632	1.2151422278094837	0.3539457573082756	0.9507775264894109	1.2190011114843908	0.26944761214473006	1.1173876963428249	1.2021924787245064	0.17307877666708368	0.7428310388173808	0.29458791699572506	0.13879639465298577	0.8796853319564077	0.7100777766533936	0.11503634353959355	1.0553788229125347	1.1377099397718904	0.13514270210307583	0.848360088115768	1.178673059100789	0.07690171690460086	0.9315675846738325	1.1797238852761933	0.12910573599864708	1.0743721416230159	1.1719907244388135	0.3739244667587191	0.4990671404318619	-0.20720253769285465	0.4060340962474265	0.31977460564011617	-0.4152079048758768	0.38811185713480467	0.300292874338441	-0.269050499422597	0.5130185596697044	0.5100423311215089	-0.10775050118363672	0.5100508419863059	0.5582109873979576	0.16892223656391772	0.391215314726997	0.5657912428551333	0.37033372395186664	0.25777219441380866	0.601079827445621	0.45315718780885605	0.25507468115342996	0.6335787856455078	0.4684370312141144	0.2805380619091951	0.6491416484285782	0.467234091523735	0.19694763579346358	0.5189445590734665	-0.17333902326084075	0.12870395663494816	0.5815479515932502	0.08513156957308841	0.17172082934246002	0.5343715870560091	0.34149816021641116	0.23371607433566063	0.496484402105154	0.4247577768528484	0.22359331133797372	0.48979858689832123	0.45298045404442056	0.17904363647671775	0.5672885683860356	0.4728681620865719
235	3.983050847457627	0.3971086053025543	0.7303480649379367	0.33174545142201084	0.36342252840683414	0.8754022278648768	0.7212988657014864	0.2966691293620902	1.0409375672280794	1.1535698022633862	0.29290844083363726	0.9042468386227838	1.2204217030501059	0.3508958440854397	0.9369227611416084	1.2158869352001824	0.26917786966251733	1.1167975775290993	1.201790675064023	0.17788030221767692	0.7276773375722863	0.29451459721976697	0.13999528432065353	0.8784886036691274	0.7013778797743391	0.11186675687215931	1.0390924342472851	1.1331226678197106	0.1352389718446715	0.8494387305856376	1.1819622968512196	0.07392884286275382	0.913328044539108	1.174580211774467	0.12918493236084128	1.0771568641297369	1.1767575494873947	0.3739056806609571	0.4992789968615858	-0.20731403799333484	0.4093760631808736	0.3313755395619075	-0.41789505342308203	0.3881696640894544	0.3004600019270717	-0.26918440714221875	0.5124029197077729	0.5116564462048983	-0.1045946343556101	0.5069854293710048	0.5720637278036871	0.16835221675541487	0.3839684643756366	0.5626652049237839	0.3660073434566507	0.25616193749465016	0.559549717333491	0.4500880693930046	0.2526029605312556	0.6172730791384352	0.467950397936927	0.2775782083117559	0.6206787714749982	0.46170366485412956	0.19719206787584656	0.5174930558205314	-0.17652751778998846	0.1287782371761936	0.5815898038229604	0.08515071571208559	0.176332926522094	0.5389384804449107	0.3416616420039571	0.23780926344718759	0.4949954321756186	0.41721712605228534	0.23101556309642518	0.5041697380647485	0.45353527137466193	0.18295130379231006	0.5807807747337217	0.46645872152751205
236	4.0	0.39303658510538153	0.7165172004439896	0.3352031223672694	0.363223677802741	0.8756634714436897	0.7210930389324652	0.29656493607349443	1.0410596777265309	1.1535763507158814	0.29316809166839164	0.9060811465932761	1.2223928454965827	0.3544797009414634	0.9533006570028539	1.2190648519779477	0.266499608386568	1.1026132227177028	1.1954805521643694	0.17466078336678642	0.712903736766208	0.298195308948024	0.1431261704367727	0.8940082362762967	0.7033947194181445	0.11489012647981929	1.05552489859361	1.137815573467544	0.13539698496531252	0.8497551167429835	1.1791736626864526	0.07726647240580004	0.9347872534631727	1.1804868395746013	0.12439801413489723	1.0723952804043675	1.1700069848354433	0.3740723454802322	0.4993060433862808	-0.21080166021137925	0.4095980130826871	0.33114971718600056	-0.4214965253173068	0.38482001013135153	0.3116209937224717	-0.27162939375172623	0.5123929883196867	0.5116671953511245	-0.10461797364727166	0.5069758763560859	0.5720173449467751	0.17220256685355056	0.3799891946339322	0.5500267872707711	0.36500565179443706	0.25003649866476746	0.5549025068032252	0.44259218531653266	0.24441217763695897	0.6154429275077324	0.4625438226618071	0.2729728090296451	0.6199583465989912	0.4611264752967176	0.19960216139920486	0.5297966447009198	-0.17814763073614676	0.1289330474069515	0.5816723591590715	0.08512923550420978	0.17918840892047141	0.5505932300464056	0.3423661016510727	0.23895610380474627	0.49738527373751984	0.4175832087948811	0.23575216856899645	0.5064910335652133	0.450106530200162	0.1917652104482761	0.5691531580973335	0.462263202560491
